PathFileType	4	(X/Y/Z)	 s02c0101.trc
DataRate	CameraRate	NumFrames	NumMarkers	Units	OrigDataRate	OrigDataStartFrame	OrigNumFrames
200	200	6	51	mm	200	751	2000
Frame#	Time	racr			lacr			c7			jug			rlel			rdr			llel			ldr			s2			lic			ric			lasi			rasi			rpsi			lpsi			rgt			lgt			rth1			rth2			rth3			rth4			rlfc			rmfc			rsh1			rsh2			rsh3			rsh4			rlmal			rmmal			rtoe			rmt5			rmt1			lth1			lth2			lth4			lth3			llfc			lmfc			lsh1			lsh2			lsh3			lsh4			llmal			lmmal			lcal			ltoe			lmt1			lmt5			SBIKE			LBIKE			RBIKE			
		X1	Y1	Z1	X2	Y2	Z2	X3	Y3	Z3	X4	Y4	Z4	X5	Y5	Z5	X6	Y6	Z6	X7	Y7	Z7	X8	Y8	Z8	X9	Y9	Z9	X10	Y10	Z10	X11	Y11	Z11	X12	Y12	Z12	X13	Y13	Z13	X14	Y14	Z14	X15	Y15	Z15	X16	Y16	Z16	X17	Y17	Z17	X18	Y18	Z18	X19	Y19	Z19	X20	Y20	Z20	X21	Y21	Z21	X22	Y22	Z22	X23	Y23	Z23	X24	Y24	Z24	X25	Y25	Z25	X26	Y26	Z26	X27	Y27	Z27	X28	Y28	Z28	X29	Y29	Z29	X30	Y30	Z30	X31	Y31	Z31	X32	Y32	Z32	X33	Y33	Z33	X34	Y34	Z34	X35	Y35	Z35	X36	Y36	Z36	X37	Y37	Z37	X38	Y38	Z38	X39	Y39	Z39	X40	Y40	Z40	X41	Y41	Z41	X42	Y42	Z42	X43	Y43	Z43	X44	Y44	Z44	X45	Y45	Z45	X46	Y46	Z46	X47	Y47	Z47	X48	Y48	Z48	X49	Y49	Z49	X50	Y50	Z50	X51	Y51	Z51	
751	3.7550	523.780542	1245.406086	-137.292796	502.423497	1270.739096	-487.273904	503.448481	1315.866878	-309.350524	462.179392	1177.340415	-315.518820	564.231419	988.119324	-55.831312	723.407389	845.818219	-118.618574	492.717916	987.189700	-546.871145	688.201137	860.895283	-495.543972	-2.677746	1103.741050	-301.813561	124.098887	1126.060948	-444.703025	132.152640	1107.732174	-160.490327	170.988395	1099.792273	-423.057811	180.083178	1079.811841	-187.111320	20.480245	1148.982202	-246.495226	16.744152	1150.476970	-335.033117	105.885616	1011.708836	-129.069353	92.295108	1036.942725	-481.027948	195.205873	960.166530	-130.749880	272.096852	917.347131	-136.543170	321.221884	850.454634	-114.316108	292.719587	937.655075	-159.986809	392.159132	728.580884	-145.135942	374.842284	710.911559	-254.061292	336.260553	628.943028	-130.584927	294.738844	551.615063	-149.121440	223.855530	502.146804	-144.159524	305.409375	546.051770	-187.256154	136.330764	423.087203	-148.581667	157.440895	432.381193	-229.270290	239.018119	218.552056	-184.040740	154.221668	290.424646	-131.319145	182.530354	276.223186	-238.259766	223.449121	976.888375	-494.858604	305.864753	951.601649	-489.587691	322.583982	979.118864	-471.147773	364.828637	884.846341	-488.794282	445.901652	822.309893	-465.218232	452.772451	790.147946	-364.773550	433.669979	717.867030	-487.610759	431.956322	632.130060	-473.291136	386.286557	554.504329	-478.131441	449.872092	629.921561	-436.786058	338.210145	457.217529	-470.368882	355.829511	452.818877	-391.498385	272.519315	400.555151	-436.605817	561.681497	393.049270	-436.995468	477.635008	392.574116	-392.298722	456.718457	370.871114	-500.817246	-162.441344	860.903301	-308.831102	37.384430	86.188296	-514.305073	33.964701	83.107640	-114.232774	
752	3.7600	522.811418	1244.954209	-137.318666	502.831365	1270.599806	-487.242889	502.965398	1315.779619	-309.446482	462.005266	1177.276647	-315.816300	564.035073	987.890236	-55.462662	723.269774	845.792269	-118.481762	493.431075	987.481919	-548.163783	688.343274	860.607757	-495.629971	-1.508117	1101.895578	-298.118377	124.618673	1124.485334	-445.800759	132.171654	1106.868152	-161.171688	171.862948	1098.296042	-424.216858	180.338296	1079.392516	-187.988645	20.154450	1146.731526	-248.208182	16.659650	1148.551630	-336.069663	106.920517	1011.208238	-129.363920	92.655090	1034.466660	-481.432590	196.892283	961.365127	-131.289960	274.701590	920.465792	-137.114202	325.631437	854.949734	-114.831324	294.459440	940.707044	-161.528107	397.662806	733.387055	-145.547078	380.519847	715.815716	-253.977376	340.965014	634.986650	-130.798177	297.705916	558.426279	-149.436379	226.095092	510.431986	-144.282297	308.216552	552.761019	-187.557090	136.866969	433.383925	-148.580063	158.314392	442.632605	-229.286352	236.300783	227.468315	-184.050356	152.700284	300.698139	-131.227541	181.120603	286.163545	-238.228808	223.012292	972.636254	-495.788264	304.422553	945.363904	-489.589449	322.192919	973.369739	-472.563204	362.838084	878.237078	-489.656852	443.420379	815.295027	-466.027445	450.766167	783.393366	-364.818141	432.631507	710.405510	-488.188654	432.260563	624.823718	-474.282672	387.653816	546.351382	-478.814272	450.245617	622.792411	-437.605860	341.310849	447.650957	-470.817903	358.687951	443.930419	-392.523541	275.946054	391.867628	-436.749576	564.827290	381.060263	-436.811997	480.782412	381.941072	-392.651007	459.629904	360.220712	-500.832684	-162.448026	861.097729	-308.272722	37.384403	86.182792	-514.318996	33.971197	83.098209	-114.239089	
753	3.7650	522.098594	1244.426519	-137.689567	503.305605	1270.460577	-487.137498	502.590756	1315.684351	-309.646834	461.721472	1177.239284	-316.109236	563.685468	987.570901	-55.135491	723.069930	845.859093	-118.392812	494.260486	987.636968	-549.655582	688.402890	860.279434	-495.878881	-1.315399	1100.516228	-299.093591	125.288861	1123.041583	-446.784735	132.212887	1106.343156	-161.875822	172.814650	1096.842260	-425.421262	180.563421	1079.261073	-188.943196	19.260552	1144.875619	-248.842127	17.030388	1147.061395	-337.316711	107.950068	1010.874639	-129.726056	93.087126	1032.337493	-481.793764	198.431645	962.733017	-131.701246	277.127615	923.583358	-137.792610	329.781230	859.681752	-115.278368	296.209776	943.918553	-162.844139	403.109852	738.515868	-145.871827	385.971177	721.220681	-254.124285	345.576789	641.311795	-131.062015	299.523046	565.471001	-150.658214	228.184174	519.066000	-144.470760	310.988142	559.778696	-187.858373	137.622706	443.968885	-148.607947	159.412286	452.858051	-229.257812	234.344455	236.888903	-183.954901	151.712667	311.168006	-131.218907	180.094387	296.625105	-238.138527	221.706422	968.459544	-496.342920	303.477700	939.799242	-490.549148	321.861128	967.539309	-473.837485	360.732520	871.695245	-490.451748	440.933439	807.924309	-466.784043	448.315485	776.888730	-365.527357	431.117959	703.272136	-488.937384	432.248676	617.620284	-475.184492	388.730649	538.520120	-479.423970	450.253202	615.820382	-438.426995	343.985889	438.313542	-471.235861	361.731031	434.335675	-392.715505	278.258407	383.675339	-437.212333	567.401093	368.743368	-436.695923	483.411174	371.312522	-392.933708	461.993655	349.464612	-500.814797	-162.450514	861.263962	-307.845495	37.386717	86.148610	-514.313018	33.800232	83.333961	-114.195926	
754	3.7700	521.313870	1244.251422	-137.591094	503.859209	1270.204107	-487.133586	502.337993	1315.664981	-309.816453	461.452054	1177.185134	-316.407110	563.232688	987.311157	-54.912434	722.835475	846.052413	-118.431322	495.108052	987.686985	-551.314567	688.402463	859.952113	-496.304433	-1.058067	1099.387212	-300.078243	126.030531	1121.822298	-447.779124	132.241462	1106.094644	-162.609767	173.805201	1095.702857	-426.584308	180.760389	1079.295527	-189.762483	19.146070	1142.995751	-250.167123	17.284296	1145.709921	-338.312565	109.178044	1010.968689	-129.763223	93.629344	1030.577803	-482.130898	199.963603	964.356564	-131.739544	279.441939	927.060775	-138.216772	333.822235	864.641636	-115.619684	297.708457	947.472573	-163.916748	408.653054	744.111262	-146.109749	391.258135	726.798725	-254.429637	350.212813	647.778073	-131.282312	303.393496	573.242322	-150.125768	230.038880	528.365105	-144.364447	313.909993	567.117728	-188.007649	138.625598	454.545033	-148.653370	160.701301	463.204797	-229.427843	233.132957	246.614018	-184.112035	151.250340	321.725936	-131.211573	179.468341	307.066568	-238.160734	221.304760	964.599225	-497.058358	302.547483	934.358324	-491.440318	321.486375	961.845041	-474.983335	358.459832	865.199170	-491.270409	437.928507	800.656901	-467.670952	448.562507	771.159272	-366.785389	429.091600	696.075294	-489.792704	431.604936	610.643607	-476.108378	389.279457	530.673139	-479.933190	449.726787	608.947266	-439.420108	346.102560	429.140592	-471.620805	364.196650	425.259538	-393.231513	280.720689	375.437352	-437.312821	569.338991	356.262156	-436.671150	485.493335	360.846985	-393.831155	463.652810	338.708908	-500.783725	-162.428453	861.502280	-307.309563	37.357014	86.113481	-514.336219	33.793294	83.326592	-114.195480	
755	3.7750	520.486500	1243.951528	-137.463871	504.408692	1269.812059	-487.218047	502.233733	1315.663711	-309.970124	461.211519	1177.171908	-316.541452	562.652290	987.061074	-54.755688	722.617931	846.233778	-118.494562	496.000557	987.657274	-553.183698	688.404988	859.612437	-496.989240	-0.664360	1098.603213	-301.013554	126.830208	1120.822453	-448.834579	132.229943	1106.067428	-163.406311	174.913139	1094.700597	-427.788150	180.954260	1079.461276	-190.488142	19.375856	1141.345531	-251.433255	17.702749	1144.626244	-339.078683	110.237352	1011.296799	-129.670155	94.271533	1029.096569	-482.446754	201.310060	966.259730	-131.925325	281.640680	930.765496	-138.767336	337.624094	869.818293	-115.903481	300.568021	952.615695	-162.930734	413.949194	750.323213	-146.370786	396.586978	732.915540	-254.736538	354.600148	654.594179	-131.560949	305.739908	580.668113	-151.285263	232.783648	536.879224	-144.412087	316.868918	574.639151	-188.443493	139.931490	465.407189	-148.843081	162.433237	473.669579	-229.647980	232.575556	256.505666	-184.025312	151.365802	332.476379	-131.225905	179.629565	317.432471	-238.154445	220.998066	960.828869	-497.744469	301.636214	928.931648	-492.202824	321.184928	956.136181	-475.958668	356.072196	858.702362	-492.297571	434.778485	793.200945	-468.395077	446.293427	763.437834	-368.061005	426.553996	688.784452	-490.708324	430.571921	603.278597	-477.082795	389.358977	522.755848	-480.603267	448.715362	601.910539	-440.372851	347.740127	419.954693	-472.070052	366.331563	416.857259	-394.647534	282.285299	367.501241	-437.542390	570.729465	343.628171	-436.667235	486.796695	349.592774	-393.428338	464.685242	327.778350	-500.826016	-162.515088	861.570676	-307.350110	37.357525	86.072251	-514.335675	33.797050	83.325141	-114.216092	
756	3.7800	519.890910	1243.778040	-137.280274	505.099308	1269.321806	-487.346696	502.296696	1315.669629	-310.049529	460.972399	1177.148077	-316.646833	561.988159	986.920050	-54.687097	722.485531	846.327963	-118.639104	496.776223	987.433812	-554.593628	688.326026	859.183668	-497.889898	-0.023943	1098.124266	-301.775713	127.663798	1119.914353	-449.917876	132.187355	1106.385517	-164.191305	175.991838	1093.814333	-428.977083	180.836809	1079.933672	-191.269883	20.655365	1139.728029	-253.667350	17.933709	1143.907221	-339.701549	111.184730	1012.027947	-129.948978	94.999441	1027.760830	-482.808492	202.501326	968.477304	-131.976353	283.641336	934.846923	-138.970675	341.155426	875.387716	-116.053907	301.354156	957.017122	-164.065022	419.255911	757.036425	-146.570560	401.772552	739.459501	-255.164489	358.842189	661.898022	-131.970119	310.318613	588.686910	-150.582810	234.789235	546.272195	-144.866479	319.939123	582.427209	-188.785456	141.451053	476.113835	-149.079461	161.807895	485.129354	-229.772462	232.928014	267.005072	-184.048283	152.046646	343.300046	-131.338437	180.193603	328.073622	-238.266440	220.738997	957.226749	-498.337191	300.679982	923.589944	-492.967181	320.870509	950.390981	-476.929082	353.602764	852.171821	-493.041820	431.082249	785.635304	-469.121089	442.111150	754.481124	-369.375687	423.576961	681.167056	-491.469576	428.992183	595.780207	-478.002390	388.976942	514.525804	-481.338828	447.220154	594.543560	-441.231912	348.868488	410.816079	-472.701406	366.689425	406.836803	-394.247635	283.278721	359.675334	-438.001837	571.537956	331.447516	-437.297438	487.506360	338.493863	-393.717018	465.111336	316.854636	-500.871423	-162.559034	861.649958	-307.328575	37.343965	86.042919	-514.360146	33.807971	83.322893	-114.223566	
